<?xml version="1.0" standalone="no"?>
<!DOCTYPE svg PUBLIC "-//W3C//DTD SVG 20010904//EN"
 "http://www.w3.org/TR/2001/REC-SVG-20010904/DTD/svg10.dtd">
<svg version="1.0" xmlns="http://www.w3.org/2000/svg"
 width="128.000000pt" height="128.000000pt" viewBox="0 0 128.000000 128.000000"
 preserveAspectRatio="xMidYMid meet">

<g transform="translate(0.000000,128.000000) scale(0.100000,-0.100000)"
fill="#000000" stroke="none">
<path d="M50 743 c-1 -290 -3 -351 -15 -367 -21 -27 -19 -79 3 -99 14 -13 38
-17 89 -17 54 0 72 -4 77 -15 9 -25 69 -55 109 -55 43 0 83 18 111 49 18 20
29 21 210 21 l190 0 32 -31 c57 -55 169 -49 207 11 10 17 23 20 88 20 61 0 79
4 92 18 23 25 21 78 -3 102 -18 18 -20 33 -20 152 l0 132 -62 96 c-89 137 -76
130 -239 130 l-139 0 0 100 0 100 -365 0 -365 0 0 -347z m700 57 l0 -260 -335
0 -335 0 0 253 c0 140 3 257 7 260 3 4 154 7 335 7 l328 0 0 -260z m302 48 c9
-7 41 -53 72 -101 53 -82 56 -91 56 -150 0 -55 -3 -63 -22 -72 -38 -17 -36
-88 2 -100 11 -3 20 -13 20 -21 0 -23 -95 -19 -112 5 -19 27 -79 61 -110 61
-40 0 -79 -18 -115 -52 -60 -58 -63 -47 -63 205 0 123 3 227 7 230 12 13 248
8 265 -5z m-304 -400 l-3 -53 -150 -3 -149 -3 -24 30 c-49 63 -147 65 -206 5
-31 -32 -38 -35 -83 -32 l-48 3 -3 53 -3 52 336 0 336 0 -3 -52z m428 15 c-11
-11 -19 6 -11 24 8 17 8 17 12 0 3 -10 2 -21 -1 -24z m-785 -62 c81 -81 -18
-219 -120 -167 -101 53 -67 195 47 196 35 0 49 -6 73 -29z m632 3 c53 -53 41
-136 -24 -170 -102 -52 -201 86 -120 167 40 40 106 41 144 3z m-843 -74 l0
-30 -60 0 -60 0 0 30 0 30 60 0 60 0 0 -30z m630 0 l0 -30 -175 0 -175 0 0 30
0 30 175 0 175 0 0 -30z m410 0 l0 -30 -65 0 -65 0 0 30 0 30 65 0 65 0 0 -30z"/>
<path d="M824 807 c-3 -8 -4 -47 -2 -88 l3 -74 144 -3 c80 -1 148 1 153 6 5 5
-13 44 -43 91 l-52 81 -99 0 c-73 0 -100 -3 -104 -13z m216 -71 c16 -25 30
-47 30 -50 0 -3 -47 -6 -105 -6 l-105 0 0 50 0 50 75 0 74 0 31 -44z"/>
<path d="M824 599 c-11 -18 11 -31 47 -27 23 2 35 9 37 21 3 14 -4 17 -37 17
-22 0 -43 -5 -47 -11z"/>
<path d="M282 374 c-42 -29 -18 -104 34 -104 26 0 50 20 59 47 4 17 -1 29 -19
48 -29 29 -43 31 -74 9z m55 -40 c8 -22 -18 -37 -36 -20 -7 8 -10 19 -7 25 10
16 36 13 43 -5z"/>
<path d="M915 365 c-14 -13 -25 -31 -25 -40 0 -23 37 -55 63 -55 53 0 77 75
35 104 -31 22 -45 20 -73 -9z m61 -26 c3 -6 0 -17 -7 -25 -18 -17 -44 -2 -36
20 7 18 33 21 43 5z"/>
</g>
</svg>
